HIERARCHY
ROOT Hips
{
 OFFSET 0.000000 0.000000 0.000000
 CHANNELS 6 Xposition Yposition Zposition Yrotation Xrotation Zrotation
 JOINT Chest
 {
  OFFSET 0.000000 10.259850 -1.139984
  CHANNELS 3 Yrotation Xrotation Zrotation
  JOINT Chest2
  {
   OFFSET 0.000000 11.398141 0.000000
   CHANNELS 3 Yrotation Xrotation Zrotation
   JOINT Chest3
   {
    OFFSET 0.000000 10.406538 -0.000686
    CHANNELS 3 Yrotation Xrotation Zrotation
    JOINT Chest4
    {
     OFFSET 0.000000 10.394921 -0.000686
     CHANNELS 3 Yrotation Xrotation Zrotation
     JOINT Neck
     {
      OFFSET 0.000000 14.551517 0.000000
      CHANNELS 3 Yrotation Xrotation Zrotation
      JOINT Head
      {
       OFFSET 0.000000 9.677932 0.001475
       CHANNELS 3 Yrotation Xrotation Zrotation
       End Site
       {
        OFFSET 0.000000 17.974674 0.000198
       }
      }
     }
     JOINT RightCollar
     {
      OFFSET -3.167137 8.157278 0.000000
      CHANNELS 3 Yrotation Xrotation Zrotation
      JOINT RightShoulder
      {
       OFFSET -14.801341 0.000000 0.000000
       CHANNELS 3 Yrotation Xrotation Zrotation
       JOINT RightElbow
       {
        OFFSET -31.642884 0.000000 0.000000
        CHANNELS 3 Yrotation Xrotation Zrotation
        JOINT RightWrist
        {
         OFFSET -25.874582 0.000000 0.000000
         CHANNELS 3 Yrotation Xrotation Zrotation
         End Site
         {
          OFFSET -19.340865 0.000000 0.000000
         }
        }
       }
      }
     }
     JOINT LeftCollar
     {
      OFFSET 3.167137 8.157278 0.000000
      CHANNELS 3 Yrotation Xrotation Zrotation
      JOINT LeftShoulder
      {
       OFFSET 14.801341 0.000000 0.000000
       CHANNELS 3 Yrotation Xrotation Zrotation
       JOINT LeftElbow
       {
        OFFSET 31.642884 0.000000 0.000000
        CHANNELS 3 Yrotation Xrotation Zrotation
        JOINT LeftWrist
        {
         OFFSET 25.874582 0.000000 0.000000
         CHANNELS 3 Yrotation Xrotation Zrotation
         End Site
         {
          OFFSET 19.340865 0.000000 0.000000
         }
        }
       }
      }
     }
    }
   }
  }
 }
 JOINT RightHip
 {
  OFFSET -8.438296 0.002831 -0.000315
  CHANNELS 3 Yrotation Xrotation Zrotation
  JOINT RightKnee
  {
   OFFSET 0.000000 -43.688570 -0.000162
   CHANNELS 3 Yrotation Xrotation Zrotation
   JOINT RightAnkle
   {
    OFFSET 0.000000 -42.683389 -0.000272
    CHANNELS 3 Yrotation Xrotation Zrotation
    JOINT RightToe
    {
     OFFSET 0.000000 -7.666805 17.422395
     CHANNELS 3 Yrotation Xrotation Zrotation
     End Site
     {
      OFFSET 0.000000 -1.661923 7.250478
     }
    }
   }
  }
 }
 JOINT LeftHip
 {
  OFFSET 8.438296 0.000526 -0.000058
  CHANNELS 3 Yrotation Xrotation Zrotation
  JOINT LeftKnee
  {
   OFFSET 0.000000 -43.688570 -0.000162
   CHANNELS 3 Yrotation Xrotation Zrotation
   JOINT LeftAnkle
   {
    OFFSET 0.000000 -42.683389 -0.000272
    CHANNELS 3 Yrotation Xrotation Zrotation
    JOINT LeftToe
    {
     OFFSET 0.000000 -7.666805 17.422395
     CHANNELS 3 Yrotation Xrotation Zrotation
     End Site
     {
      OFFSET 0.000000 -1.661923 7.250478
     }
    }
   }
  }
 }
}
MOTION
Frames: 15
Frame Time: 0.016667
0.000000 95.616464 0.000000 0.000000 6.340192 0.000000 0.000000 -6.340192 0.000000 0.000000 -5.826342 0.000000 0.000000 -0.005910 0.000000 0.000000 5.832252 0.000000 0.000000 12.610213 0.000000 0.000000 -9.243752 0.000000 0.000000 0.000000 0.000000 0.000000 0.000000 0.000000 2.309063 0.000000 0.000000 -2.309063 0.000000 0.000000 0.000000 0.000000 0.000000 0.000000 0.000000 0.000000 -2.309063 0.000000 0.000000 2.309063 0.000000 0.000000 0.000000 -3.591006 0.000000 0.000000 1.872585 0.000000 0.000000 -4.621771 0.000000 0.000000 0.000000 0.000000 0.000000 -3.587706 0.000000 0.000000 1.905768 0.000000 0.000000 -4.658254 0.000000 0.000000 0.000000 0.000000
145.769133 92.358861 -1827.158990 -0.668052 13.902858 0.286880 1.029209 0.365020 -2.886139 0.590613 -5.669052 -1.289829 0.587853 0.151071 -1.229876 0.346962 5.948046 -0.927508 7.616414 12.549069 -0.789318 14.808498 -12.231938 -4.630951 15.077329 3.736565 9.139172 25.128072 -10.717207 69.521100 26.375285 21.268500 16.680668 -1.713255 0.666778 -4.535767 13.429692 2.660869 -8.313603 -11.536242 -5.963298 -70.932496 -28.391471 7.076797 -9.722205 1.825987 5.563737 17.305507 -2.814051 1.626299 -2.325843 -0.699053 2.443125 0.010711 3.069125 -23.545546 0.388136 0.000000 -0.000000 -0.000000 14.826426 -36.749267 -3.664764 1.827789 38.502354 -0.546134 1.649814 -11.348147 2.295475 0.005682 -1.061327 -0.527890
146.233677 91.991003 -1826.308464 -0.890185 14.436056 0.090951 1.254514 0.356832 -2.888197 0.690808 -5.674088 -1.290915 0.687552 0.145927 -1.220791 0.422420 5.944011 -0.920662 7.552712 12.487841 -0.849334 14.719408 -12.344201 -4.727479 14.575314 3.675598 8.909433 25.591619 -11.864792 68.743230 29.973472 20.120773 18.599149 -1.435429 0.313172 -5.753080 13.412693 2.497918 -8.403768 -10.994113 -5.446078 -71.135618 -25.651436 6.993762 -8.769622 3.001709 5.464726 17.478645 -2.888064 1.697207 -2.480717 -0.617546 2.570916 -0.133912 2.983360 -24.739429 1.039544 -0.000000 0.000000 0.000000 14.612478 -37.411679 -3.371400 3.785363 39.947362 0.090329 2.525901 -12.338638 1.769816 0.010743 -2.102036 -1.095445
146.770538 91.614557 -1825.412460 -1.040202 15.029082 -0.051013 1.437316 0.351401 -2.928622 0.773894 -5.677726 -1.309107 0.770227 0.142179 -1.230548 0.483673 5.941009 -0.928022 7.490363 12.391190 -0.907119 14.635966 -12.522059 -4.825156 14.053386 3.683260 8.642845 26.086832 -13.196159 67.981931 33.519369 18.889330 20.424970 -1.194210 -0.008694 -6.853565 13.279936 2.321617 -8.501869 -10.275793 -4.880503 -71.235694 -22.966061 6.789833 -7.975301 4.084011 5.200859 17.331997 -3.008075 1.713651 -2.688597 -0.583413 2.664264 -0.298825 2.844333 -25.677954 1.565087 0.000000 -0.000000 0.000000 14.543236 -38.118455 -3.297056 5.632328 41.456690 0.698551 3.169444 -13.376765 1.409558 0.019101 -3.069818 -1.469653
147.394094 91.229149 -1824.458114 -1.122313 15.691264 -0.111147 1.565576 0.361302 -3.033832 0.835829 -5.674393 -1.356230 0.831870 0.145416 -1.271389 0.526793 5.943200 -0.958839 7.435875 12.235664 -0.959707 14.572371 -12.808473 -4.924335 13.457527 3.892610 8.320907 26.635380 -15.040659 67.220874 37.072580 17.720034 22.272601 -1.008819 -0.406979 -7.793117 12.962851 2.121765 -8.608170 -9.196281 -4.269392 -71.172521 -20.185123 6.262664 -7.422071 5.096742 4.517027 16.670184 -3.170283 1.674192 -2.959468 -0.679774 2.666214 -0.511270 2.732369 -26.212461 1.857759 0.000000 0.000000 0.000000 14.754384 -38.855005 -3.591588 7.501666 43.026798 1.337340 3.450901 -14.566428 1.398145 0.031469 -3.890888 -1.531542
148.089968 90.835153 -1823.458290 -1.129955 16.414016 -0.114812 1.649560 0.374694 -3.176367 0.879831 -5.669341 -1.419996 0.875674 0.150402 -1.330692 0.555127 5.946686 -1.003581 7.382113 12.044699 -1.010362 14.514079 -13.160497 -5.025253 12.837515 4.170089 7.963793 27.223021 -17.070751 66.469777 40.578074 16.457370 24.042622 -0.860840 -0.801298 -8.624634 12.529384 1.908506 -8.715163 -7.932102 -3.621503 -71.010989 -17.455769 5.660135 -7.061205 6.061627 3.762065 15.633507 -3.380616 1.579786 -3.280745 -0.824852 2.634227 -0.740986 2.581224 -26.491410 2.018086 0.000000 -0.000000 0.000000 15.127476 -39.635000 -4.127222 9.283029 44.657029 1.969294 3.488855 -15.825500 1.579845 0.044381 -4.665280 -1.380411
148.887355 90.425104 -1822.406099 -0.971310 17.231380 -0.082285 1.680450 0.358623 -3.311168 0.899651 -5.677016 -1.480172 0.895384 0.142704 -1.388848 0.565452 5.940710 -1.047410 7.310546 11.853007 -1.066241 14.424436 -13.515144 -5.128997 12.332049 4.186109 7.589400 27.800823 -18.485968 65.792892 43.894766 14.807765 25.403950 -0.728208 -0.985696 -9.326378 12.069199 1.698291 -8.818776 -6.847664 -2.895861 -70.838660 -15.259498 5.607885 -6.832287 6.853705 3.680672 14.447352 -3.699555 1.380460 -3.669008 -0.816421 2.706700 -0.924217 2.135847 -26.701444 2.227161 0.000000 -0.000000 0.000000 15.434387 -40.550132 -4.717306 10.413410 46.449665 2.316925 3.420637 -16.938135 1.694323 0.049776 -5.609127 -1.102868
149.796347 89.980273 -1821.343040 -0.608708 18.247415 -0.040505 1.651955 0.259923 -3.406518 0.890621 -5.720894 -1.522473 0.886326 0.098850 -1.432047 0.555266 5.907723 -1.079843 7.220172 11.678953 -1.142079 14.305357 -13.836880 -5.260474 12.045427 3.714335 7.195485 28.486712 -18.932766 65.184889 46.978193 12.572920 26.094220 -0.705247 -0.905300 -9.733978 11.601824 1.425367 -8.912679 -6.003621 -1.951503 -70.730230 -13.748446 6.656106 -6.627200 7.405091 4.943050 13.115337 -4.162736 1.027761 -4.097363 -0.444114 2.767537 -1.041117 1.122298 -26.915992 2.571852 -0.000000 0.000000 0.000000 15.519165 -41.835863 -5.219701 10.551137 48.604634 2.134382 3.245108 -17.828474 1.673011 0.038771 -6.810681 -0.685032
150.806852 89.519389 -1820.227614 -0.074634 19.357323 0.048963 1.570621 0.132250 -3.492487 0.857434 -5.777227 -1.560555 0.853227 0.042568 -1.473496 0.527156 5.865472 -1.110929 7.111959 11.504492 -1.222739 14.154541 -14.160922 -5.393761 11.877697 2.984304 6.776800 29.139407 -18.761741 64.670742 49.927696 10.117817 26.312104 -0.695777 -0.663508 -9.970227 11.108004 1.155337 -9.002555 -5.339178 -0.923463 -70.605565 -12.750366 8.266288 -6.463440 7.674033 6.864162 11.751639 -4.737676 0.572234 -4.584229 0.084839 2.927807 -1.117775 -0.188814 -27.043961 2.981852 0.000000 0.000000 -0.000000 15.547839 -43.257121 -5.784103 9.899069 50.940352 1.512724 2.959994 -18.567098 1.635096 0.007339 -8.171925 -0.104933
151.917782 89.091173 -1818.928437 0.618411 20.280422 0.263021 1.447335 0.103273 -3.616002 0.808042 -5.789421 -1.615671 0.804079 0.030437 -1.533646 0.485668 5.856315 -1.156258 6.971119 11.309664 -1.269929 13.929545 -14.530715 -5.452118 11.661005 2.350231 6.352298 29.309827 -18.232497 64.361491 52.809816 8.002373 26.480989 -0.395394 -0.264971 -10.425355 10.618777 1.101978 -9.106661 -5.034347 -0.179890 -70.326416 -12.277508 9.426346 -6.509963 7.618368 8.056935 10.698582 -5.380794 0.111992 -5.217887 0.357053 3.671310 -1.150134 -1.233899 -27.032437 3.405239 0.000000 0.000000 -0.000000 15.767923 -44.197208 -6.658735 8.714522 52.999484 0.686374 2.709322 -19.151753 1.588845 -0.046251 -9.626553 0.552553
153.145318 88.684839 -1817.366565 1.519375 20.851174 0.705158 1.267446 0.257223 -3.827485 0.738981 -5.719916 -1.710324 0.735461 0.100023 -1.635323 0.426583 5.908382 -1.233128 6.791956 11.065250 -1.252883 13.609173 -15.005040 -5.377586 11.315164 1.917983 5.892061 28.928505 -17.350626 64.331641 56.004529 6.478329 26.809643 0.340849 0.501389 -11.386075 10.128063 1.428766 -9.189248 -5.185086 0.204912 -69.803936 -12.483006 9.793547 -7.027221 7.179768 7.650056 9.992227 -6.223558 -0.068044 -6.163108 0.175280 4.920009 -1.039754 -1.701817 -27.176346 3.875840 0.043244 0.933221 -0.382547 16.342846 -44.337389 -8.015908 6.861574 54.672930 -0.362139 2.488853 -19.588637 1.447984 -0.135878 -11.177212 1.376346
154.473281 88.311172 -1815.620942 2.580338 21.226307 1.269133 1.043604 0.511711 -4.072305 0.652958 -5.605182 -1.819739 0.650006 0.214859 -1.753467 0.353756 5.994410 -1.322523 6.581022 10.800424 -1.201101 13.214247 -15.525009 -5.224143 10.916149 1.582375 5.432056 28.081699 -16.109174 64.500907 59.138650 5.274640 27.228656 1.348211 1.466136 -12.538947 9.642417 1.973609 -9.284549 -5.683933 0.314805 -69.121440 -13.238334 9.727337 -7.827405 6.465922 6.453267 9.515028 -7.131660 -0.254649 -7.260524 -0.227976 6.765469 -0.888643 -1.883089 -27.197416 4.339384 0.075329 1.864683 -0.770015 17.050662 -43.966309 -9.632635 4.457794 56.061302 -1.622661 2.303070 -19.874431 1.291870 -0.259121 -12.812311 2.294316
155.852047 88.051252 -1813.797008 3.642242 21.614411 1.714216 0.829994 0.743430 -4.241483 0.568009 -5.500358 -1.895090 0.565592 0.319793 -1.837428 0.284340 6.073137 -1.386095 6.342349 10.582800 -1.166025 12.766225 -15.957845 -5.082343 10.529655 1.378524 5.096606 26.550036 -14.750335 64.731170 61.102450 4.089076 27.855542 2.518276 2.027684 -13.403173 9.205794 2.462015 -9.518484 -6.417225 0.019001 -68.405113 -14.137346 9.263764 -8.462974 5.773275 5.578513 9.311990 -7.641192 -1.195424 -8.125104 -0.614846 9.942972 -0.981772 -2.087830 -26.192058 4.604308 0.000000 -0.000000 -0.000000 17.565885 -43.390620 -11.174370 2.300922 57.045472 -2.652910 2.327369 -19.987034 1.340632 -0.373448 -14.469219 2.941215
157.293648 87.976655 -1811.926615 4.648294 22.158722 1.951401 0.668684 0.877184 -4.295688 0.500090 -5.439416 -1.919007 0.498051 0.380809 -1.868233 0.231517 6.119027 -1.409453 6.057881 10.428952 -1.167773 12.236949 -16.272189 -4.980842 10.195022 1.283550 4.976044 23.799143 -13.348549 64.977987 61.571376 2.830203 29.244355 4.213894 1.913803 -13.864023 8.830554 2.754451 -10.010620 -7.585171 -0.622166 -67.721088 -14.779167 8.027787 -8.552741 5.276010 5.598156 9.375851 -7.662592 -3.280768 -8.716915 -0.822964 14.838093 -1.334189 -2.437836 -23.602012 4.776771 -0.437519 -7.447354 2.846497 17.738226 -42.770874 -12.583854 0.786211 57.533762 -3.188618 2.754734 -19.861159 1.688321 -0.440272 -16.168301 3.104346
158.786052 88.015804 -1809.977912 5.653941 22.723981 2.072056 0.521893 0.986125 -4.276147 0.434889 -5.389652 -1.909954 0.433175 0.430621 -1.865800 0.183183 6.156586 -1.407709 5.746078 10.322644 -1.184462 11.654707 -16.498958 -4.888273 9.878530 1.318057 4.979385 20.364256 -11.833514 65.251715 60.790265 1.734612 30.960184 6.108346 1.338393 -13.947435 8.494190 2.993202 -10.644710 -9.025628 -1.641120 -66.978274 -15.562077 6.394635 -8.437599 4.806524 5.943931 9.685957 -7.278590 -6.112723 -9.150847 -1.000281 21.065440 -1.858593 -2.748579 -19.979515 4.796818 -1.446419 -17.648140 7.073237 17.697644 -41.961564 -13.899122 -0.361952 57.643196 -3.372952 3.427188 -19.566548 2.203516 -0.466182 -17.905476 2.959774
